<svg xmlns="http://www.w3.org/2000/svg" xmlns:xlink="http://www.w3.org/1999/xlink" width="366.965" height="158.283" viewBox="0 0 366.965 158.283">
  <defs>
    <linearGradient id="linear-gradient" x1="0.157" y1="-0.315" x2="0.814" y2="1.246" gradientUnits="objectBoundingBox">
      <stop offset="0" stop-color="#0f1115"/>
      <stop offset="0.14" stop-color="#1c2228"/>
      <stop offset="0.258" stop-color="#232a32"/>
      <stop offset="0.36" stop-color="#1c2228"/>
      <stop offset="0.489" stop-color="#0f1115"/>
      <stop offset="0.613" stop-color="#1c2228"/>
      <stop offset="0.737" stop-color="#232a32"/>
      <stop offset="0.839" stop-color="#1c2228"/>
      <stop offset="1" stop-color="#0f1115"/>
    </linearGradient>
    <linearGradient id="linear-gradient-2" x1="0.165" y1="-0.425" x2="0.806" y2="1.346" gradientUnits="objectBoundingBox">
      <stop offset="0" stop-color="#161a1f"/>
      <stop offset="0.14" stop-color="#2a323b"/>
      <stop offset="0.258" stop-color="#343f4a"/>
      <stop offset="0.36" stop-color="#2a323b"/>
      <stop offset="0.489" stop-color="#161a1f"/>
      <stop offset="0.613" stop-color="#2a323b"/>
      <stop offset="0.737" stop-color="#343f4a"/>
      <stop offset="0.839" stop-color="#2a323b"/>
      <stop offset="1" stop-color="#161a1f"/>
    </linearGradient>
    <radialGradient id="radial-gradient" cx="0.859" cy="-1.12" r="1.73" gradientTransform="translate(0.394 0) scale(0.578 1)" gradientUnits="objectBoundingBox">
      <stop offset="0" stop-color="#e8e8e8"/>
      <stop offset="0.054" stop-color="#a6a6a6"/>
      <stop offset="0.14" stop-color="#606060"/>
      <stop offset="0.209" stop-color="#4b4b4b"/>
      <stop offset="0.326" stop-color="#303030"/>
      <stop offset="0.453" stop-color="#1a1a1a"/>
      <stop offset="0.594" stop-color="#0b0b0b"/>
      <stop offset="0.757" stop-color="#020202"/>
      <stop offset="1"/>
    </radialGradient>
    <linearGradient id="linear-gradient-3" x1="0.195" y1="-0.208" x2="0.805" y2="1.208" gradientUnits="objectBoundingBox">
      <stop offset="0" stop-color="#b07515"/>
      <stop offset="0.094" stop-color="#e0ba5f"/>
      <stop offset="0.14" stop-color="#f5d77f"/>
      <stop offset="0.258" stop-color="#ffffd7"/>
      <stop offset="0.36" stop-color="#f5d77f"/>
      <stop offset="0.489" stop-color="#b07515"/>
      <stop offset="0.573" stop-color="#e0ba5f"/>
      <stop offset="0.613" stop-color="#f5d77f"/>
      <stop offset="0.737" stop-color="#ffffd7"/>
      <stop offset="0.839" stop-color="#f5d77f"/>
      <stop offset="1" stop-color="#b07515"/>
    </linearGradient>
    <linearGradient id="linear-gradient-4" x1="-0.158" y1="0.08" x2="7.635" y2="5.719" xlink:href="#linear-gradient-3"/>
    <linearGradient id="linear-gradient-5" x1="-0.714" y1="-0.553" x2="4.689" y2="5.086" xlink:href="#linear-gradient-3"/>
    <linearGradient id="linear-gradient-6" x1="-2.139" y1="-1.236" x2="6.303" y2="4.322" xlink:href="#linear-gradient-3"/>
    <linearGradient id="linear-gradient-7" x1="-1.397" y1="-1.894" x2="2.729" y2="3.627" xlink:href="#linear-gradient-3"/>
    <linearGradient id="linear-gradient-8" x1="-7.047" y1="-2.709" x2="6.152" y2="2.93" xlink:href="#linear-gradient-3"/>
    <linearGradient id="linear-gradient-9" x1="-3.045" y1="-3.352" x2="2.277" y2="2.184" xlink:href="#linear-gradient-3"/>
    <linearGradient id="linear-gradient-10" x1="-2.962" y1="-3.987" x2="1.165" y2="1.535" xlink:href="#linear-gradient-3"/>
    <linearGradient id="linear-gradient-11" x1="0" y1="0.5" x2="1" y2="0.5" xlink:href="#linear-gradient-3"/>
    <linearGradient id="linear-gradient-13" x1="-10.933" y1="-11.429" x2="3.608" y2="3.858" xlink:href="#linear-gradient-3"/>
    <linearGradient id="linear-gradient-14" x1="-1.182" y1="-1.178" x2="13.363" y2="14.113" xlink:href="#linear-gradient-3"/>
  </defs>
  <g id="Group_21826" data-name="Group 21826" transform="translate(-776.856 -675)">
    <g id="Group_3384" data-name="Group 3384" transform="translate(752.463 582.59)">
      <path id="Path_1259" data-name="Path 1259" d="M386.914,133.017H365.8V116.245c-22.593-3.375-20.9-4.125-52.544-11.248C283.574,98.315,247.147,94.56,206.722,94.56S129.875,98.315,100.2,105c-31.637,7.123-29.946,7.873-52.546,11.248v16.772H26.542v74.772h21.11v16.773c22.6,3.373,20.909,4.122,52.546,11.248,29.678,6.681,66.107,10.436,106.524,10.436s76.853-3.755,106.532-10.436c31.641-7.126,29.951-7.874,52.544-11.248V207.789h21.116Z" transform="translate(1.148 1.148)" fill="url(#linear-gradient)"/>
      <path id="Path_1260" data-name="Path 1260" d="M368.018,135.284H348.545V121.974c-20.837-2.677-19.277-3.272-48.456-8.925-27.372-5.3-60.966-8.282-98.245-8.282s-70.87,2.981-98.24,8.282c-29.176,5.653-27.614,6.248-48.456,8.925v13.309H35.679v59.337H55.148V207.93c20.842,2.678,19.28,3.271,48.456,8.925,27.37,5.3,60.966,8.282,98.24,8.282s70.873-2.981,98.245-8.282c29.179-5.654,27.619-6.247,48.456-8.925V194.621h19.473Z" transform="translate(6.027 6.599)" fill="url(#linear-gradient-2)"/>
      <path id="Path_1261" data-name="Path 1261" d="M103.6,216.855c11.439,2.215,23.98,4.019,37.409,5.377A367.987,367.987,0,0,1,238.955,105.81c-11.867-.681-24.266-1.043-37.112-1.043-37.274,0-70.87,2.981-98.24,8.282-29.176,5.653-27.614,6.248-48.456,8.925v13.309H35.679v59.337H55.148V207.93C75.989,210.608,74.427,211.2,103.6,216.855Z" transform="translate(6.027 6.599)" opacity="0.6" fill="url(#radial-gradient)" style="mix-blend-mode: screen;isolation: isolate"/>
      <g id="Group_3382" data-name="Group 3382" transform="translate(24.393 92.41)">
        <path id="Path_1262" data-name="Path 1262" d="M207.869,250.693c-39.6,0-76.681-3.637-107.25-10.519-11.1-2.5-17.976-4.183-23.5-5.535a245.784,245.784,0,0,0-28.809-5.667l-2.81-.42V212.236H24.393V130.867H45.5V114.552l2.81-.42a249.424,249.424,0,0,0,28.8-5.664c5.524-1.353,12.4-3.04,23.509-5.539,30.569-6.882,67.653-10.519,107.25-10.519s76.687,3.637,107.257,10.519c11.117,2.5,18,4.186,23.523,5.541a248.687,248.687,0,0,0,28.782,5.662l2.812.42v16.315h21.115v81.369H370.244v16.316l-2.812.42a246.325,246.325,0,0,0-28.8,5.664c-5.524,1.353-12.4,3.037-23.509,5.538C284.556,247.056,247.469,250.693,207.869,250.693ZM52.1,222.873a245.806,245.806,0,0,1,26.594,5.358c5.5,1.347,12.337,3.022,23.377,5.509,30.1,6.774,66.685,10.358,105.8,10.358s75.71-3.584,105.808-10.358c11.05-2.487,17.892-4.165,23.391-5.51a245.864,245.864,0,0,1,26.579-5.357V205.641h21.116V137.463H363.647V120.23a245.28,245.28,0,0,1-26.567-5.354c-5.5-1.347-12.346-3.024-23.4-5.513C283.579,102.588,246.989,99,207.869,99s-75.7,3.584-105.8,10.358c-11.047,2.487-17.892,4.165-23.388,5.512A245.409,245.409,0,0,1,52.1,120.23v17.233H30.988v68.178H52.1Z" transform="translate(-24.393 -92.41)" fill="url(#linear-gradient-3)"/>
      </g>
      <g id="Group_3383" data-name="Group 3383" transform="translate(95.68 150.135)">
        <path id="Path_1263" data-name="Path 1263" d="M74,139.341c0-4.725,0-5.6-.063-6.592-.06-1.057-.31-1.554-1.336-1.773a6.356,6.356,0,0,0-1.213-.092c-.342,0-.529-.064-.529-.279s.221-.282.686-.282c1.648,0,3.608.094,4.476.094,1.276,0,3.08-.094,4.51-.094,3.887,0,5.288,1.307,5.783,1.773a5.391,5.391,0,0,1,1.556,3.7,7.317,7.317,0,0,1-7.649,7.526,4.431,4.431,0,0,1-.653-.032c-.156-.031-.373-.061-.373-.279,0-.248.216-.342.868-.342,1.743,0,4.168-1.959,4.168-5.133a5.986,5.986,0,0,0-1.833-4.663,4.625,4.625,0,0,0-3.111-1.213,4.466,4.466,0,0,0-1.213.124c-.153.063-.249.25-.249.591v12.44c0,2.863,0,5.319.158,6.655.09.873.278,1.556,1.212,1.681a13.562,13.562,0,0,0,1.586.123c.344,0,.5.1.5.249,0,.219-.249.311-.592.311-2.051,0-4.01-.092-4.818-.092-.715,0-2.675.092-3.919.092-.4,0-.621-.092-.621-.311,0-.153.124-.249.5-.249a5.249,5.249,0,0,0,1.12-.123c.621-.126.776-.808.9-1.71.155-1.307.155-3.763.155-6.626Z" transform="translate(-70.863 -129.888)" fill="url(#linear-gradient-4)"/>
        <path id="Path_1264" data-name="Path 1264" d="M93.367,139.341c0-4.725,0-5.6-.063-6.592-.061-1.057-.311-1.554-1.336-1.773a6.373,6.373,0,0,0-1.215-.092c-.341,0-.526-.064-.526-.279s.218-.282.684-.282c1.646,0,3.607.094,4.26.094,1.058,0,3.421-.094,4.386-.094a9.95,9.95,0,0,1,5.722,1.338,5.4,5.4,0,0,1,2.112,4.262c0,2.3-.963,4.417-4.1,6.966,2.767,3.482,4.914,6.25,6.748,8.178a6.2,6.2,0,0,0,3.482,2.115,4.841,4.841,0,0,0,.87.092c.25,0,.376.1.376.249,0,.249-.219.311-.592.311h-2.955a6.343,6.343,0,0,1-3.327-.589c-1.338-.716-2.517-2.178-4.26-4.573-1.244-1.71-2.674-3.826-3.079-4.291a.647.647,0,0,0-.56-.218l-2.706-.063c-.155,0-.247.063-.247.248v.437c0,2.892,0,5.348.155,6.655.092.9.279,1.585,1.213,1.71a14.878,14.878,0,0,0,1.523.123c.249,0,.373.1.373.249,0,.219-.219.311-.623.311-1.8,0-4.1-.092-4.571-.092-.591,0-2.551.092-3.8.092-.4,0-.621-.092-.621-.311,0-.153.124-.249.5-.249a5.261,5.261,0,0,0,1.12-.123c.62-.126.778-.808.9-1.71.155-1.307.155-3.763.155-6.626Zm3.671,2.458c0,.342.06.466.279.56a8.127,8.127,0,0,0,2.362.311,3.11,3.11,0,0,0,2.208-.529c.933-.684,1.835-2.114,1.835-4.665,0-4.417-2.924-5.691-4.757-5.691a6.8,6.8,0,0,0-1.648.124c-.219.064-.279.187-.279.437Z" transform="translate(-60.522 -129.888)" fill="url(#linear-gradient-5)"/>
        <path id="Path_1265" data-name="Path 1265" d="M114.757,139.427c0-4.725,0-5.6-.061-6.592-.063-1.057-.313-1.554-1.338-1.773a6.366,6.366,0,0,0-1.213-.092c-.341,0-.528-.064-.528-.279s.218-.282.681-.282c.842,0,1.744.032,2.522.032.807.031,1.523.061,1.959.061,1,0,7.184,0,7.775-.031a12.79,12.79,0,0,0,1.336-.186,2.793,2.793,0,0,1,.5-.126c.156,0,.186.126.186.281a19.988,19.988,0,0,0-.249,2.02c-.031.311-.094,1.681-.155,2.053-.032.156-.094.344-.311.344s-.279-.155-.279-.436a3.329,3.329,0,0,0-.187-1.121c-.218-.558-.528-.931-2.083-1.118-.529-.061-3.794-.123-4.417-.123-.155,0-.216.091-.216.31v7.867c0,.219.031.342.216.342.686,0,4.26,0,4.976-.06a2.175,2.175,0,0,0,1.493-.468c.218-.248.342-.4.5-.4.124,0,.218.061.218.249s-.124.683-.247,2.27c-.034.621-.126,1.864-.126,2.083,0,.249,0,.589-.281.589a.245.245,0,0,1-.279-.278,8.1,8.1,0,0,0-.124-1.121c-.155-.62-.591-1.088-1.741-1.212-.591-.061-3.671-.094-4.415-.094-.156,0-.187.126-.187.311V144.9c0,1.058-.032,3.919,0,4.822.061,2.146.558,2.613,3.731,2.613a7.861,7.861,0,0,0,2.922-.374c.808-.373,1.183-1.025,1.4-2.3.06-.342.123-.466.341-.466.247,0,.247.249.247.56a24.461,24.461,0,0,1-.4,3.452c-.219.808-.5.808-1.681.808-2.33,0-4.042-.061-5.378-.094-1.338-.063-2.3-.092-3.234-.092-.344,0-1.026,0-1.773.029-.715,0-1.525.063-2.146.063-.407,0-.621-.092-.621-.311,0-.153.123-.249.5-.249a5.265,5.265,0,0,0,1.121-.123c.621-.126.775-.808.9-1.71.155-1.307.155-3.763.155-6.626Z" transform="translate(-49.099 -129.974)" fill="url(#linear-gradient-6)"/>
        <path id="Path_1266" data-name="Path 1266" d="M135.324,130.847c.094-.529.279-.808.528-.808s.436.156.841.965l8.489,17.289,8.46-17.508c.249-.5.4-.746.683-.746s.468.311.56.965l2.832,19.031c.279,1.961.589,2.861,1.523,3.14a6.193,6.193,0,0,0,1.927.311c.281,0,.5.032.5.218,0,.248-.373.344-.807.344-.778,0-5.07-.064-6.313-.156-.716-.063-.9-.156-.9-.342,0-.155.123-.249.342-.342.187-.061.279-.466.153-1.339l-1.864-13.527h-.126l-6.779,13.869c-.715,1.462-.87,1.743-1.151,1.743s-.589-.621-1.089-1.554c-.746-1.431-3.2-6.19-3.576-7.06-.279-.653-2.146-4.323-3.234-6.656H136.2l-1.617,12.128a12.173,12.173,0,0,0-.094,1.462c0,.591.4.873.933,1a5.913,5.913,0,0,0,1.309.155c.247,0,.463.063.463.219,0,.278-.279.341-.746.341-1.307,0-2.7-.092-3.264-.092-.592,0-2.083.092-3.079.092-.313,0-.561-.063-.561-.341,0-.156.187-.219.5-.219a4.049,4.049,0,0,0,.933-.092c.871-.186,1.12-1.4,1.275-2.458Z" transform="translate(-39.527 -130.039)" fill="url(#linear-gradient-7)"/>
        <path id="Path_1267" data-name="Path 1267" d="M160.743,139.341c0-4.725,0-5.6-.061-6.592-.063-1.057-.374-1.586-1.058-1.741a4.331,4.331,0,0,0-1.12-.124c-.311,0-.5-.064-.5-.313,0-.186.249-.249.746-.249,1.183,0,3.142.094,4.044.094.778,0,2.611-.094,3.794-.094.4,0,.652.063.652.249,0,.248-.187.313-.5.313a5.187,5.187,0,0,0-.934.092c-.839.156-1.088.684-1.149,1.773-.063,1-.063,1.867-.063,6.592v5.473c0,3.017,0,5.475.124,6.811.092.839.311,1.4,1.244,1.525a13.56,13.56,0,0,0,1.585.123c.342,0,.5.1.5.249,0,.219-.247.311-.589.311-2.054,0-4.013-.092-4.852-.092-.715,0-2.674.092-3.918.092-.4,0-.621-.092-.621-.311,0-.153.123-.249.5-.249a5.253,5.253,0,0,0,1.121-.123c.621-.126.808-.654.9-1.556.155-1.305.155-3.763.155-6.78Z" transform="translate(-24.325 -129.888)" fill="url(#linear-gradient-8)"/>
        <path id="Path_1268" data-name="Path 1268" d="M175.259,139.341c0-4.725,0-5.6-.063-6.592-.061-1.057-.31-1.554-1.336-1.773a6.367,6.367,0,0,0-1.213-.092c-.342,0-.529-.064-.529-.279s.219-.282.686-.282c1.646,0,3.608.094,4.539.094.747,0,2.706-.094,3.826-.094.466,0,.684.063.684.282s-.187.279-.5.279a4.612,4.612,0,0,0-.9.092c-.841.156-1.089.684-1.151,1.773-.063,1-.063,1.867-.063,6.592v4.354c0,4.51.9,6.408,2.425,7.652a5.751,5.751,0,0,0,3.887,1.273,6.089,6.089,0,0,0,4.291-1.677c1.71-1.712,1.8-4.51,1.8-7.713v-3.889c0-4.725,0-5.6-.061-6.592-.063-1.057-.311-1.554-1.338-1.773a5.975,5.975,0,0,0-1.12-.092c-.342,0-.528-.064-.528-.279s.218-.282.653-.282c1.585,0,3.545.094,3.574.094.374,0,2.335-.094,3.547-.094.434,0,.654.063.654.282s-.187.279-.561.279a4.624,4.624,0,0,0-.9.092c-.842.156-1.089.684-1.151,1.773-.064,1-.064,1.867-.064,6.592v3.329c0,3.452-.341,7.123-2.953,9.361a9.284,9.284,0,0,1-6.468,2.24c-1.649,0-4.634-.1-6.9-2.148-1.588-1.428-2.769-3.729-2.769-8.239Z" transform="translate(-16.789 -129.888)" fill="url(#linear-gradient-9)"/>
        <path id="Path_1269" data-name="Path 1269" d="M200.832,130.847c.094-.529.281-.808.528-.808s.437.156.842.965l8.488,17.289,8.462-17.508c.247-.5.4-.746.683-.746s.466.311.56.965l2.83,19.031c.279,1.961.591,2.861,1.523,3.14a6.2,6.2,0,0,0,1.928.311c.281,0,.5.032.5.218,0,.248-.373.344-.808.344-.778,0-5.068-.064-6.311-.156-.716-.063-.9-.156-.9-.342,0-.155.123-.249.341-.342.186-.061.281-.466.155-1.339l-1.865-13.527h-.126l-6.779,13.869c-.715,1.462-.868,1.743-1.149,1.743s-.592-.621-1.089-1.554c-.747-1.431-3.2-6.19-3.576-7.06-.279-.653-2.146-4.323-3.235-6.656h-.123l-1.618,12.128a12.175,12.175,0,0,0-.094,1.462c0,.591.4.873.933,1a5.911,5.911,0,0,0,1.307.155c.25,0,.466.063.466.219,0,.278-.281.341-.746.341-1.309,0-2.706-.092-3.266-.092-.591,0-2.083.092-3.079.092-.313,0-.56-.063-.56-.341,0-.156.187-.219.5-.219a4.017,4.017,0,0,0,.931-.092c.874-.186,1.123-1.4,1.278-2.458Z" transform="translate(-4.542 -130.039)" fill="url(#linear-gradient-10)"/>
      </g>
      <rect id="Rectangle_2" data-name="Rectangle 2" width="206.94" height="2.061" transform="translate(100.695 133.214)" fill="url(#linear-gradient-11)"/>
      <rect id="Rectangle_3" data-name="Rectangle 3" width="206.94" height="2.061" transform="translate(100.695 208.24)" fill="url(#linear-gradient-11)"/>
      <path id="Path_1270" data-name="Path 1270" d="M245.349,152.627l-4.589-2.719-4.59,2.724,1.165-5.209-4.009-3.521,5.312-.5,2.115-4.9,2.118,4.9,5.311.5-4,3.525Z" transform="translate(111.58 24.614)" fill="url(#linear-gradient-13)"/>
      <path id="Path_1271" data-name="Path 1271" d="M56.439,152.627l-4.59-2.719-4.589,2.724,1.166-5.209-4.01-3.521,5.312-.5,2.117-4.9,2.117,4.9,5.311.5-4,3.525Z" transform="translate(10.693 24.614)" fill="url(#linear-gradient-14)"/>
    </g>
    <text id="MEMBERS" transform="translate(884 781)" fill="#d5a94d" font-size="20" font-family="TimesNewRomanPSMT, Times New Roman" letter-spacing="0.456em"><tspan x="0" y="0">MEMBERS</tspan></text>
  </g>
</svg>
