<svg xmlns="http://www.w3.org/2000/svg" xmlns:xlink="http://www.w3.org/1999/xlink" width="288.646" height="69.902" viewBox="0 0 288.646 69.902">
  <defs>
    <linearGradient id="linear-gradient" y1="0.5" x2="1" y2="0.5" gradientUnits="objectBoundingBox">
      <stop offset="0" stop-color="#472005"/>
      <stop offset="0.887" stop-color="#723f01"/>
    </linearGradient>
    <linearGradient id="linear-gradient-8" x1="0.5" y1="1" x2="0.5" gradientUnits="objectBoundingBox">
      <stop offset="0" stop-color="#472005"/>
      <stop offset="0.018" stop-color="#633a13"/>
      <stop offset="0.046" stop-color="#885c26"/>
      <stop offset="0.077" stop-color="#a87a36"/>
      <stop offset="0.111" stop-color="#c39344"/>
      <stop offset="0.15" stop-color="#d9a84f"/>
      <stop offset="0.196" stop-color="#eab758"/>
      <stop offset="0.252" stop-color="#f6c25e"/>
      <stop offset="0.33" stop-color="#fdc962"/>
      <stop offset="0.548" stop-color="#ffcb63"/>
      <stop offset="0.681" stop-color="#fed888"/>
      <stop offset="0.808" stop-color="#fee3a4"/>
      <stop offset="0.918" stop-color="#fee9b5"/>
      <stop offset="1" stop-color="#feecbc"/>
    </linearGradient>
    <linearGradient id="linear-gradient-9" x1="0.5" y1="1" x2="0.5" gradientUnits="objectBoundingBox">
      <stop offset="0" stop-color="#ffdf9e"/>
      <stop offset="0.349" stop-color="#723f01"/>
      <stop offset="0.511" stop-color="#472005"/>
      <stop offset="0.516" stop-color="#633a13"/>
      <stop offset="0.523" stop-color="#885c26"/>
      <stop offset="0.532" stop-color="#a87a36"/>
      <stop offset="0.541" stop-color="#c39344"/>
      <stop offset="0.552" stop-color="#d9a84f"/>
      <stop offset="0.564" stop-color="#eab758"/>
      <stop offset="0.58" stop-color="#f6c25e"/>
      <stop offset="0.601" stop-color="#fdc962"/>
      <stop offset="0.661" stop-color="#ffcb63"/>
      <stop offset="0.761" stop-color="#fed888"/>
      <stop offset="0.856" stop-color="#fee3a4"/>
      <stop offset="0.939" stop-color="#fee9b5"/>
      <stop offset="1" stop-color="#feecbc"/>
    </linearGradient>
    <linearGradient id="linear-gradient-10" y1="0.5" x2="1" y2="0.5" gradientUnits="objectBoundingBox">
      <stop offset="0" stop-color="#feecbc"/>
      <stop offset="0.061" stop-color="#fee9b5"/>
      <stop offset="0.144" stop-color="#fee3a4"/>
      <stop offset="0.239" stop-color="#fed888"/>
      <stop offset="0.339" stop-color="#ffcb63"/>
      <stop offset="0.399" stop-color="#fdc962"/>
      <stop offset="0.42" stop-color="#f6c25e"/>
      <stop offset="0.436" stop-color="#eab758"/>
      <stop offset="0.448" stop-color="#d9a84f"/>
      <stop offset="0.459" stop-color="#c39344"/>
      <stop offset="0.468" stop-color="#a87a36"/>
      <stop offset="0.477" stop-color="#885c26"/>
      <stop offset="0.484" stop-color="#633a13"/>
      <stop offset="0.489" stop-color="#472005"/>
      <stop offset="0.651" stop-color="#723f01"/>
      <stop offset="1" stop-color="#ffdf9e"/>
    </linearGradient>
    <linearGradient id="linear-gradient-13" x1="-0.002" y1="0.501" x2="1.002" y2="0.501" xlink:href="#linear-gradient"/>
    <linearGradient id="linear-gradient-20" x1="-0.004" y1="0.501" x2="1.001" y2="0.501" xlink:href="#linear-gradient"/>
    <clipPath id="clip-path">
      <path id="Path_9210" data-name="Path 9210" d="M-203.687,382.674l1.161,1.4a2.252,2.252,0,0,1-2.265,3.631c-.671-.165-1.377-.332-2.114-.506-6.1-1.415-13.743-3.192-18-8.319l-6.926-8.351c4.254,5.127,11.893,6.9,18,8.319C-208.667,380.054-205.066,381.01-203.687,382.674Z" transform="translate(231.826 -370.526)" fill="url(#linear-gradient)"/>
    </clipPath>
  </defs>
  <g id="Group_21816" data-name="Group 21816" transform="translate(234.987 -352.444)">
    <g id="Group_21794" data-name="Group 21794" transform="translate(-7.812 355.499)">
      <g id="Group_21793" data-name="Group 21793">
        <g id="Group_21792" data-name="Group 21792">
          <g id="Group_21791" data-name="Group 21791" style="isolation: isolate">
            <g id="Group_21785" data-name="Group 21785" transform="translate(13.487)">
              <path id="Path_9179" data-name="Path 9179" d="M-83.666,354.365l6.925,8.351,24.933,30.736-6.925-8.351Z" transform="translate(83.666 -354.365)" fill="url(#linear-gradient)"/>
            </g>
            <g id="Group_21786" data-name="Group 21786" transform="translate(15.845 27.76)">
              <path id="Path_9180" data-name="Path 9180" d="M-81.9,371.82l6.925,8.351-.282,30.735-6.925-8.351Z" transform="translate(82.183 -371.82)" fill="url(#linear-gradient)"/>
            </g>
            <g id="Group_21787" data-name="Group 21787" transform="translate(0 58.496)">
              <path id="Path_9181" data-name="Path 9181" d="M-76.3,391.145l6.925,8.351H-85.221l-6.925-8.351Z" transform="translate(92.146 -391.145)" fill="url(#linear-gradient)"/>
            </g>
            <g id="Group_21788" data-name="Group 21788" transform="translate(41.131 58.496)">
              <path id="Path_9182" data-name="Path 9182" d="M-53.4,391.145l6.925,8.351H-59.359l-6.925-8.351Z" transform="translate(66.284 -391.145)" fill="url(#linear-gradient)"/>
            </g>
            <g id="Group_21789" data-name="Group 21789" transform="translate(54.01)">
              <path id="Path_9183" data-name="Path 9183" d="M-57.65,354.365l6.925,8.351-.536,58.5-6.925-8.351Z" transform="translate(58.186 -354.365)" fill="url(#linear-gradient)"/>
            </g>
            <g id="Group_21790" data-name="Group 21790">
              <path id="Path_9184" data-name="Path 9184" d="M-37.6,354.365l-.536,58.5H-51.015l-25-30.736-.282,30.736H-92.146l.536-58.5h12.951L-53.726,385.1l.282-30.735Z" transform="translate(92.146 -354.365)" fill="url(#linear-gradient)"/>
            </g>
          </g>
        </g>
        <path id="Path_9185" data-name="Path 9185" d="M-50.545,413.191l-25.382-30.909v30.909H-91.836V354.366h13l25.3,30.9v-30.9H-37.62v58.825Z" transform="translate(92.329 -354.364)" fill="url(#linear-gradient-8)"/>
        <path id="Path_9186" data-name="Path 9186" d="M-39.811,355.371V411H-50.382l-27.735-33.775V411H-90.831V355.371h10.646l27.657,33.775V355.371Z" transform="translate(92.922 -353.771)" fill="url(#linear-gradient-9)"/>
        <path id="Path_9187" data-name="Path 9187" d="M-39.811,355.371V411H-50.382l-27.735-33.775V411H-90.831V355.371h10.646l27.657,33.775V355.371Z" transform="translate(92.922 -353.771)" fill="none" stroke="#707070" stroke-miterlimit="10" stroke-width="0.502"/>
      </g>
      <path id="Path_9188" data-name="Path 9188" d="M-39.811,355.371V411H-50.382l-27.735-33.775V411H-90.831V355.371h10.646l27.657,33.775V355.371Z" transform="translate(92.922 -353.771)" opacity="0.47" fill="url(#linear-gradient-10)" style="mix-blend-mode: soft-light;isolation: isolate"/>
    </g>
    <g id="Group_21800" data-name="Group 21800" transform="translate(-172.993 352.444)">
      <g id="Group_21799" data-name="Group 21799">
        <g id="Group_21798" data-name="Group 21798" transform="translate(0 0.002)">
          <g id="Group_21795" data-name="Group 21795" transform="translate(16.161 14.088)" style="isolation: isolate">
            <path id="Path_9189" data-name="Path 9189" d="M-157.922,366.61l6.926,8.351a15.219,15.219,0,0,0-12.033-5.307c-9.269,0-15.8,6.622-15.891,16.119a16.407,16.407,0,0,0,3.563,10.8l-6.926-8.351a16.415,16.415,0,0,1-3.561-10.8c.086-9.5,6.622-16.119,15.891-16.119A15.213,15.213,0,0,1-157.922,366.61Z" transform="translate(185.846 -361.303)" fill="url(#linear-gradient)"/>
          </g>
          <path id="Path_9190" data-name="Path 9190" d="M-127.723,386.877A29.492,29.492,0,0,1-134.77,406a1.162,1.162,0,0,1-.175.224,29.452,29.452,0,0,1-3.644,3.547c-.32.256-.655.528-.991.768s-.671.51-1.023.735a9.7,9.7,0,0,1-.83.558c-.367.24-.719.464-1.1.671q-.623.384-1.293.72c-.113.064-.208.111-.32.175-.433.224-.879.431-1.342.639a31.6,31.6,0,0,1-3.229,1.263c-.352.127-.735.239-1.1.352-.177.048-.336.1-.512.143-.239.064-.495.145-.751.192-.383.111-.783.191-1.182.288-.464.1-.943.191-1.422.27-.32.065-.655.113-.991.161-.512.064-1.039.127-1.567.191-.56.049-1.15.1-1.726.129h-.016c-.639.032-1.279.048-1.934.048-10.4,0-19.3-4.251-24.99-11.106l-6.92-8.356c5.689,6.855,14.589,11.1,24.992,11.1.655,0,1.295-.016,1.934-.048h.016c.574-.032,1.15-.08,1.71-.127.511-.048,1.023-.113,1.517-.192.367-.048.719-.1,1.07-.175a14.865,14.865,0,0,0,1.47-.272c.351-.08.689-.161,1.024-.24.286-.064.574-.143.846-.223.177-.049.336-.1.511-.145.369-.111.736-.224,1.1-.352a29.165,29.165,0,0,0,3.515-1.406c.351-.143.7-.32,1.054-.5.415-.207.816-.431,1.215-.654.367-.208.735-.417,1.086-.639a.59.59,0,0,0,.111-.081c.4-.239.784-.495,1.151-.751.767-.526,1.517-1.1,2.236-1.71.417-.336.816-.687,1.215-1.054a29.415,29.415,0,0,0,2.188-2.285,29.561,29.561,0,0,0,7.224-19.335,30.238,30.238,0,0,0-.161-3.419,26.916,26.916,0,0,0-.542-3.419q-.122-.623-.288-1.245c-.08-.32-.177-.623-.272-.927-.08-.288-.177-.576-.272-.864s-.192-.574-.3-.862a28.3,28.3,0,0,0-4.809-8.374l6.918,8.358c.3.352.592.719.864,1.086.208.272.4.544.592.814.479.7.942,1.423,1.358,2.158.207.352.415.719.59,1.086.065.127.129.256.192.383A26.829,26.829,0,0,1-129.61,376c.129.336.24.687.351,1.023a27.11,27.11,0,0,1,.864,3.147c.08.367.143.719.208,1.086.127.736.223,1.471.3,2.222A29.746,29.746,0,0,1-127.723,386.877Z" transform="translate(198.472 -348.324)" fill="url(#linear-gradient)"/>
          <g id="Group_21796" data-name="Group 21796" transform="translate(63.527 57.679)" style="isolation: isolate">
            <path id="Path_9191" data-name="Path 9191" d="M-155.872,388.728c-.064.065-.127.145-.191.208a1.162,1.162,0,0,0,.175-.224Z" transform="translate(156.063 -388.712)" fill="url(#linear-gradient-13)"/>
          </g>
          <g id="Group_21797" data-name="Group 21797">
            <path id="Path_9192" data-name="Path 9192" d="M-163.825,352.445c18.194,0,31.8,12.987,31.643,30.206s-14,30.192-32.2,30.192-31.786-12.986-31.627-30.192S-182.019,352.445-163.825,352.445Zm-.425,46.311c9.27,0,15.805-6.622,15.893-16.1s-6.328-16.119-15.6-16.119-15.805,6.622-15.891,16.119,6.327,16.1,15.6,16.1Z" transform="translate(196.007 -352.445)" fill="url(#linear-gradient)"/>
          </g>
        </g>
        <path id="Path_9193" data-name="Path 9193" d="M-163.846,413.175c-18.263,0-32.036-13.054-32.036-30.366s13.773-30.366,32.036-30.366,32.039,13.054,32.039,30.366S-145.581,413.175-163.846,413.175Zm0-46.569c-9.305,0-15.805,6.662-15.805,16.2s6.5,16.2,15.805,16.2,15.809-6.662,15.809-16.2S-154.539,366.607-163.846,366.607Z" transform="translate(196.081 -352.444)" fill="url(#linear-gradient-8)"/>
        <path id="Path_9194" data-name="Path 9194" d="M-194.877,382.217c0-16.531,12.874-28.769,30.437-28.769,17.485,0,30.44,12.159,30.44,28.769s-12.955,28.769-30.44,28.769C-182,410.986-194.877,398.746-194.877,382.217Zm47.843,0c0-10.57-7.47-17.8-17.405-17.8s-17.4,7.232-17.4,17.8,7.469,17.8,17.4,17.8S-147.034,392.785-147.034,382.217Z" transform="translate(196.674 -351.851)" fill="url(#linear-gradient-9)"/>
        <path id="Path_9195" data-name="Path 9195" d="M-194.877,382.217c0-16.531,12.874-28.769,30.437-28.769,17.485,0,30.44,12.159,30.44,28.769s-12.955,28.769-30.44,28.769C-182,410.986-194.877,398.746-194.877,382.217Zm47.843,0c0-10.57-7.47-17.8-17.405-17.8s-17.4,7.232-17.4,17.8,7.469,17.8,17.4,17.8S-147.034,392.785-147.034,382.217Z" transform="translate(196.674 -351.851)" fill="none" stroke="#707070" stroke-miterlimit="10" stroke-width="0.502"/>
      </g>
      <path id="Path_9196" data-name="Path 9196" d="M-194.877,382.217c0-16.531,12.874-28.769,30.437-28.769,17.485,0,30.44,12.159,30.44,28.769s-12.955,28.769-30.44,28.769C-182,410.986-194.877,398.746-194.877,382.217Zm47.843,0c0-10.57-7.47-17.8-17.405-17.8s-17.4,7.232-17.4,17.8,7.469,17.8,17.4,17.8S-147.034,392.785-147.034,382.217Z" transform="translate(196.674 -351.851)" opacity="0.47" fill="url(#linear-gradient-10)" style="mix-blend-mode: soft-light;isolation: isolate"/>
    </g>
    <g id="Group_21806" data-name="Group 21806" transform="translate(-92.973 352.444)">
      <g id="Group_21805" data-name="Group 21805">
        <g id="Group_21804" data-name="Group 21804" transform="translate(0 0.002)">
          <g id="Group_21801" data-name="Group 21801" transform="translate(16.161 14.088)" style="isolation: isolate">
            <path id="Path_9197" data-name="Path 9197" d="M-107.606,366.61l6.925,8.351a15.213,15.213,0,0,0-12.031-5.307c-9.269,0-15.805,6.622-15.891,16.119a16.414,16.414,0,0,0,3.561,10.8l-6.925-8.351a16.424,16.424,0,0,1-3.563-10.8c.087-9.5,6.624-16.119,15.893-16.119A15.217,15.217,0,0,1-107.606,366.61Z" transform="translate(135.532 -361.303)" fill="url(#linear-gradient)"/>
          </g>
          <path id="Path_9198" data-name="Path 9198" d="M-77.408,386.877A29.492,29.492,0,0,1-84.455,406a1.163,1.163,0,0,1-.175.224,29.452,29.452,0,0,1-3.644,3.547c-.32.256-.655.528-.991.768s-.671.51-1.023.735a9.478,9.478,0,0,1-.832.558c-.367.24-.719.464-1.1.671q-.623.384-1.295.72c-.111.064-.207.111-.32.175-.431.224-.878.431-1.342.639A31.578,31.578,0,0,1-98.4,415.3c-.351.127-.735.239-1.1.352-.177.048-.336.1-.512.143-.239.064-.495.145-.751.192-.383.111-.782.191-1.183.288-.463.1-.942.191-1.422.27-.32.065-.655.113-.991.161-.511.064-1.039.127-1.565.191-.56.049-1.151.1-1.726.129h-.016c-.639.032-1.279.048-1.934.048-10.4,0-19.3-4.251-24.992-11.106l-6.918-8.356c5.689,6.855,14.589,11.1,24.992,11.1.655,0,1.293-.016,1.932-.048h.016c.576-.032,1.151-.08,1.71-.127.512-.048,1.023-.113,1.519-.192.367-.048.719-.1,1.07-.175a14.864,14.864,0,0,0,1.47-.272c.351-.08.687-.161,1.023-.24.288-.064.576-.143.848-.223.175-.049.336-.1.511-.145.367-.111.735-.224,1.1-.352a29.165,29.165,0,0,0,3.515-1.406c.351-.143.7-.32,1.054-.5.415-.207.814-.431,1.215-.654.367-.208.735-.417,1.086-.639a.59.59,0,0,0,.111-.081c.4-.239.782-.495,1.15-.751a28.025,28.025,0,0,0,2.238-1.71c.415-.336.814-.687,1.215-1.054a29.415,29.415,0,0,0,2.188-2.285,29.56,29.56,0,0,0,7.222-19.335,30.241,30.241,0,0,0-.159-3.419,26.635,26.635,0,0,0-.544-3.419q-.119-.623-.288-1.245c-.08-.32-.175-.623-.27-.927-.081-.288-.177-.576-.272-.864s-.192-.574-.3-.862a28.3,28.3,0,0,0-4.809-8.374l6.918,8.358c.3.352.592.719.864,1.086.207.272.4.544.592.814.479.7.942,1.423,1.357,2.158.208.352.417.719.592,1.086l.192.383A26.829,26.829,0,0,1-79.295,376c.129.336.24.687.351,1.023a27.1,27.1,0,0,1,.864,3.147c.08.367.143.719.207,1.086.129.736.224,1.471.3,2.222A29.75,29.75,0,0,1-77.408,386.877Z" transform="translate(148.159 -348.324)" fill="url(#linear-gradient)"/>
          <g id="Group_21802" data-name="Group 21802" transform="translate(63.528 57.679)" style="isolation: isolate">
            <path id="Path_9199" data-name="Path 9199" d="M-105.557,388.728c-.064.065-.127.145-.191.208a1.163,1.163,0,0,0,.175-.224Z" transform="translate(105.748 -388.712)" fill="url(#linear-gradient-20)"/>
          </g>
          <g id="Group_21803" data-name="Group 21803">
            <path id="Path_9200" data-name="Path 9200" d="M-113.51,352.445c18.194,0,31.8,12.987,31.643,30.206s-14,30.192-32.2,30.192-31.786-12.986-31.628-30.192S-131.7,352.445-113.51,352.445Zm-.425,46.311c9.269,0,15.805-6.622,15.893-16.1s-6.328-16.119-15.6-16.119-15.805,6.622-15.893,16.119,6.328,16.1,15.6,16.1Z" transform="translate(145.693 -352.445)" fill="url(#linear-gradient)"/>
          </g>
        </g>
        <path id="Path_9201" data-name="Path 9201" d="M-113.531,413.175c-18.263,0-32.036-13.054-32.036-30.366s13.773-30.366,32.036-30.366S-81.493,365.5-81.493,382.81-95.267,413.175-113.531,413.175Zm0-46.569c-9.305,0-15.805,6.662-15.805,16.2s6.5,16.2,15.805,16.2,15.809-6.662,15.809-16.2S-104.224,366.607-113.531,366.607Z" transform="translate(145.767 -352.444)" fill="url(#linear-gradient-8)"/>
        <path id="Path_9202" data-name="Path 9202" d="M-144.562,382.217c0-16.531,12.874-28.769,30.437-28.769,17.485,0,30.44,12.159,30.44,28.769s-12.955,28.769-30.44,28.769C-131.688,410.986-144.562,398.746-144.562,382.217Zm47.843,0c0-10.57-7.47-17.8-17.405-17.8s-17.4,7.232-17.4,17.8,7.47,17.8,17.4,17.8S-96.719,392.785-96.719,382.217Z" transform="translate(146.361 -351.851)" fill="url(#linear-gradient-9)"/>
        <path id="Path_9203" data-name="Path 9203" d="M-144.562,382.217c0-16.531,12.874-28.769,30.437-28.769,17.485,0,30.44,12.159,30.44,28.769s-12.955,28.769-30.44,28.769C-131.688,410.986-144.562,398.746-144.562,382.217Zm47.843,0c0-10.57-7.47-17.8-17.405-17.8s-17.4,7.232-17.4,17.8,7.47,17.8,17.4,17.8S-96.719,392.785-96.719,382.217Z" transform="translate(146.361 -351.851)" fill="none" stroke="#707070" stroke-miterlimit="10" stroke-width="0.502"/>
      </g>
      <path id="Path_9204" data-name="Path 9204" d="M-144.562,382.217c0-16.531,12.874-28.769,30.437-28.769,17.485,0,30.44,12.159,30.44,28.769s-12.955,28.769-30.44,28.769C-131.688,410.986-144.562,398.746-144.562,382.217Zm47.843,0c0-10.57-7.47-17.8-17.405-17.8s-17.4,7.232-17.4,17.8,7.47,17.8,17.4,17.8S-96.719,392.785-96.719,382.217Z" transform="translate(146.361 -351.851)" opacity="0.47" fill="url(#linear-gradient-10)" style="mix-blend-mode: soft-light;isolation: isolate"/>
    </g>
    <g id="Group_21815" data-name="Group 21815" transform="translate(-234.987 352.461)">
      <g id="Group_21814" data-name="Group 21814">
        <g id="Group_21807" data-name="Group 21807" transform="translate(0 52.892)">
          <path id="Path_9205" data-name="Path 9205" d="M-234.006,386.484l6.925,8.351-.981-.772-6.925-8.351Z" transform="translate(234.987 -385.712)" fill="url(#linear-gradient)"/>
        </g>
        <g id="Group_21813" data-name="Group 21813" transform="translate(0 0.003)">
          <path id="Path_9206" data-name="Path 9206" d="M-198.5,366.266a2.243,2.243,0,0,0-.612-.515l-1.215-.7a29.636,29.636,0,0,0-14.532-4.133c-.28,0-.577.006-.884.016l-.227.01c-.318.014-.643.032-.975.06l-.067.006q-.465.043-.938.11c-.083.011-.164.022-.247.035-.337.051-.673.111-1.005.186-.037.008-.073.019-.11.027-.3.07-.59.151-.876.243-.075.022-.15.046-.223.072a8.3,8.3,0,0,0-.9.363c-.043.021-.081.045-.124.065a6.018,6.018,0,0,0-.7.417c-.057.04-.114.078-.169.118a4.383,4.383,0,0,0-.644.59c-.011.013-.027.022-.038.035-.056.065-.1.14-.148.208-.064.086-.132.17-.188.261-.011.019-.027.033-.037.053a3.423,3.423,0,0,0-.232.472h0l0,.01a3.831,3.831,0,0,0-.153.485c-.006.03-.008.062-.014.092-.014.073-.024.151-.035.227s-.035.177-.041.27-.013.2-.014.3,0,.2.014.293a2.284,2.284,0,0,0,.1.391,2.3,2.3,0,0,0,.065.254,2.623,2.623,0,0,0,.421.717l6.925,8.351a2.661,2.661,0,0,1-.421-.717c-.032-.081-.041-.17-.065-.254a2.416,2.416,0,0,1-.115-.684,4.14,4.14,0,0,1,.054-.574c.013-.076.021-.154.037-.227a3.468,3.468,0,0,1,.167-.577l0-.01a3.332,3.332,0,0,1,.269-.525c.056-.091.122-.175.186-.261s.119-.165.186-.243a4.475,4.475,0,0,1,.644-.59c.054-.04.113-.078.169-.118a6.165,6.165,0,0,1,.7-.417c.041-.021.081-.045.124-.065a8.022,8.022,0,0,1,.9-.363c.072-.025.146-.049.221-.072.286-.092.577-.173.876-.243.037-.008.073-.019.111-.027.332-.075.67-.135,1.007-.186.08-.013.161-.024.24-.035.316-.045.631-.081.942-.11l.067-.006c.332-.029.658-.048.975-.06l.229-.01c.305-.01.6-.016.883-.016A29.632,29.632,0,0,1-193.4,373.4l1.568.9Z" transform="translate(241.566 -347.461)" fill="url(#linear-gradient)"/>
          <g id="Group_21808" data-name="Group 21808" transform="translate(43.156 7.908)">
            <path id="Path_9207" data-name="Path 9207" d="M-200.559,358.245l3.672,4.429a2.254,2.254,0,0,1,.347,2.3l-3.3,7.938a2.256,2.256,0,0,1-3.819.574l-3.672-4.428a2.258,2.258,0,0,1-.347-2.306l3.3-7.938A2.256,2.256,0,0,1-200.559,358.245Z" transform="translate(207.852 -357.429)" fill="url(#linear-gradient)"/>
          </g>
          <g id="Group_21811" data-name="Group 21811" transform="translate(5.027 28.737)" style="isolation: isolate">
            <path id="Path_9208" data-name="Path 9208" d="M-203.687,382.674l1.161,1.4a2.252,2.252,0,0,1-2.265,3.631c-.671-.165-1.377-.332-2.114-.506-6.1-1.415-13.743-3.192-18-8.319l-6.926-8.351c4.254,5.127,11.893,6.9,18,8.319C-208.667,380.054-205.066,381.01-203.687,382.674Z" transform="translate(231.826 -370.526)" fill="url(#linear-gradient)"/>
            <g id="Group_21810" data-name="Group 21810" clip-path="url(#clip-path)">
              <g id="Group_21809" data-name="Group 21809" style="isolation: isolate">
                <path id="Path_9209" data-name="Path 9209" d="M-203.687,382.674l6.925,8.351c-1.379-1.664-4.978-2.619-10.142-3.828-6.1-1.415-13.743-3.192-18-8.319l-6.926-8.351c4.254,5.127,11.893,6.9,18,8.319,5.162,1.209,8.763,2.165,10.142,3.828" transform="translate(231.826 -370.526)" fill="url(#linear-gradient)"/>
              </g>
            </g>
          </g>
          <path id="Path_9211" data-name="Path 9211" d="M-181.143,392.562c.019-.153.04-.307.054-.46.008-.073.021-.148.027-.221.035-.42.054-.838.057-1.252.006-.644-.027-1.253-.079-1.848,0-.067,0-.141-.008-.208-.008-.083-.03-.153-.04-.235a16.347,16.347,0,0,0-.345-2.029l-.013-.043a14.011,14.011,0,0,0-.588-1.8c-.043-.107-.081-.216-.127-.321a13.117,13.117,0,0,0-.794-1.565c-.057-.1-.119-.191-.18-.286a13.445,13.445,0,0,0-1.021-1.431l-6.925-8.351a13.679,13.679,0,0,1,1.021,1.431c.059.1.121.189.18.286a13.108,13.108,0,0,1,.794,1.565c.045.1.084.215.127.321a13.906,13.906,0,0,1,.588,1.8l.013.045a16.113,16.113,0,0,1,.344,2.029c.017.148.037.293.049.444.052.595.086,1.2.08,1.848,0,.487-.037.98-.084,1.473-.014.153-.037.305-.054.458q-.067.534-.167,1.07c-.03.164-.06.328-.1.491-.1.448-.21.9-.345,1.342-.013.041-.021.081-.033.122-.153.487-.336.969-.536,1.449-.054.134-.115.264-.173.4q-.255.57-.555,1.128c-.062.116-.119.232-.184.347-.278.487-.577.969-.911,1.439-.017.025-.04.049-.059.075q-.484.675-1.053,1.322c-.064.073-.132.146-.2.219-.388.428-.8.848-1.244,1.252l-.1.084q-.661.587-1.406,1.134c-.064.048-.126.1-.191.145-.5.361-1.04.7-1.6,1.032-.1.062-.212.124-.32.185-.566.32-1.163.623-1.789.906-.1.048-.213.092-.32.138-.663.289-1.35.563-2.08.808-.029.01-.059.018-.086.026-.72.24-1.479.452-2.265.644-.111.027-.221.057-.334.084-.781.181-1.6.336-2.444.469-.161.025-.32.049-.482.072-.857.124-1.745.223-2.669.293-.145.011-.3.017-.444.027-.981.064-1.99.1-3.049.1a48.094,48.094,0,0,1-14.337-2.193,2.25,2.25,0,0,0-2.394,3.591h0a2.362,2.362,0,0,0,.4.386c5.283,3.994,14.369,6.567,23.257,6.567,1.058,0,2.066-.041,3.049-.1.146-.01.3-.016.442-.027.926-.07,1.811-.169,2.669-.293q.243-.033.482-.072c.846-.134,1.664-.288,2.444-.469.115-.027.223-.057.334-.084.786-.192,1.544-.4,2.265-.644.029-.008.059-.016.086-.025.73-.245,1.417-.518,2.079-.806.108-.048.218-.092.323-.14.627-.283,1.221-.587,1.789-.907.108-.06.213-.122.318-.183.561-.331,1.1-.673,1.6-1.034.065-.048.126-.1.189-.143.5-.366.965-.743,1.406-1.136.032-.029.067-.056.1-.084.445-.4.856-.824,1.244-1.252.067-.073.135-.146.2-.219s.116-.126.172-.189c.315-.369.6-.749.881-1.132.017-.025.04-.049.057-.075.3-.417.571-.841.821-1.272.033-.054.059-.111.091-.167.065-.114.122-.232.186-.348.2-.371.385-.746.553-1.124.059-.132.119-.264.175-.4.035-.084.078-.169.111-.253.157-.4.3-.8.423-1.2.013-.041.021-.081.033-.122.1-.339.2-.681.282-1.021.027-.107.041-.213.064-.321.037-.164.068-.328.1-.493C-181.242,393.273-181.188,392.918-181.143,392.562Z" transform="translate(237.659 -340.616)" fill="url(#linear-gradient)"/>
          <g id="Group_21812" data-name="Group 21812">
            <path id="Path_9212" data-name="Path 9212" d="M-208.085,352.457c7.578,0,14.883,1.874,20.039,5.148l1.124.7-5.258,12.642-1.568-.9a29.636,29.636,0,0,0-14.532-4.133c-3.338,0-8.946.615-8.984,4.735-.024,2.759,4.033,3.89,10.738,5.42,9.021,2.06,21.388,4.891,21.267,18.05-.08,8.637-6.747,18.735-25.272,18.735-9.011,0-18.228-2.645-23.476-6.735l-.981-.773,5.787-12.558,1.567,1.145a30.626,30.626,0,0,0,17.3,5.463c3.4,0,9.1-.558,9.137-4.334.025-2.831-4.046-3.976-10.765-5.549-9.006-2.088-21.358-4.962-21.237-18.236C-233.12,362.6-226.494,352.457-208.085,352.457Z" transform="translate(234.987 -352.457)" fill="url(#linear-gradient)"/>
          </g>
        </g>
        <path id="Path_9213" data-name="Path 9213" d="M-210.091,413.188c-9.043,0-18.317-2.659-23.627-6.775l-1-.77,5.7-12.636,1.589,1.159a31,31,0,0,0,17.415,5.493c3.41,0,9.131-.566,9.131-4.361,0-2.848-4.1-4.006-10.858-5.576-9.068-2.107-21.486-4.992-21.486-18.347,0-8.728,6.559-18.921,25.044-18.921,7.6,0,14.947,1.886,20.162,5.174l1.134.713-5.166,12.7-1.586-.9a29.869,29.869,0,0,0-14.627-4.159c-3.351,0-8.971.617-8.971,4.758,0,2.777,4.092,3.912,10.831,5.453,9.08,2.077,21.512,4.921,21.512,18.148C-184.895,403.036-191.493,413.188-210.091,413.188Z" transform="translate(235.148 -352.455)" fill="url(#linear-gradient-8)"/>
        <path id="Path_9214" data-name="Path 9214" d="M-232.912,402.842l2.519-5.587a2.252,2.252,0,0,1,3.209-1,33.3,33.3,0,0,0,16.225,4.41c7.631,0,10.727-2.543,10.727-5.961,0-10.411-32.342-3.257-32.342-23.921,0-9.456,7.631-17.323,23.444-17.323a38.937,38.937,0,0,1,17.506,3.893,2.268,2.268,0,0,1,1.061,2.868l-2.295,5.643a2.241,2.241,0,0,1-3.046,1.183,30.564,30.564,0,0,0-13.307-3.256c-7.628,0-10.568,2.86-10.568,6.357,0,10.252,32.342,3.178,32.342,23.6,0,9.3-7.709,17.245-23.6,17.245-7.93,0-15.925-2.118-21.038-5.32A2.25,2.25,0,0,1-232.912,402.842Z" transform="translate(236.093 -351.862)" fill="url(#linear-gradient-9)"/>
        <path id="Path_9215" data-name="Path 9215" d="M-232.912,402.842l2.519-5.587a2.252,2.252,0,0,1,3.209-1,33.3,33.3,0,0,0,16.225,4.41c7.631,0,10.727-2.543,10.727-5.961,0-10.411-32.342-3.257-32.342-23.921,0-9.456,7.631-17.323,23.444-17.323a38.937,38.937,0,0,1,17.506,3.893,2.268,2.268,0,0,1,1.061,2.868l-2.295,5.643a2.241,2.241,0,0,1-3.046,1.183,30.564,30.564,0,0,0-13.307-3.256c-7.628,0-10.568,2.86-10.568,6.357,0,10.252,32.342,3.178,32.342,23.6,0,9.3-7.709,17.245-23.6,17.245-7.93,0-15.925-2.118-21.038-5.32A2.25,2.25,0,0,1-232.912,402.842Z" transform="translate(236.093 -351.862)" fill="none" stroke="#707070" stroke-miterlimit="10" stroke-width="0.502"/>
      </g>
      <path id="Path_9216" data-name="Path 9216" d="M-232.912,402.842l2.519-5.587a2.252,2.252,0,0,1,3.209-1,33.3,33.3,0,0,0,16.225,4.41c7.631,0,10.727-2.543,10.727-5.961,0-10.411-32.342-3.257-32.342-23.921,0-9.456,7.631-17.323,23.444-17.323a38.937,38.937,0,0,1,17.506,3.893,2.268,2.268,0,0,1,1.061,2.868l-2.295,5.643a2.241,2.241,0,0,1-3.046,1.183,30.564,30.564,0,0,0-13.307-3.256c-7.628,0-10.568,2.86-10.568,6.357,0,10.252,32.342,3.178,32.342,23.6,0,9.3-7.709,17.245-23.6,17.245-7.93,0-15.925-2.118-21.038-5.32A2.25,2.25,0,0,1-232.912,402.842Z" transform="translate(236.093 -351.862)" opacity="0.47" fill="url(#linear-gradient-10)" style="mix-blend-mode: soft-light;isolation: isolate"/>
    </g>
  </g>
</svg>
